<svg xmlns="http://www.w3.org/2000/svg" xmlns:xlink="http://www.w3.org/1999/xlink" width="564" height="46" version="1.1" viewbox="0 0 564 46"><defs><style type="text/css"/></defs><path d="M0 31h5m80 0h10m32 0h10m164 0h10m32 0h10m164 0h10m32 0h5" class="c"/><rect width="80" height="36" x="5" y="5" class="s"/><text x="15" y="31" class="k">ATAN2</text><rect width="32" height="36" x="95" y="5" class="s" rx="7"/><text x="105" y="31" class="syn">(</text><rect width="164" height="36" x="137" y="5" class="s" rx="7"/><text x="147" y="31" class="k">y_coordinate</text><rect width="32" height="36" x="311" y="5" class="s" rx="7"/><text x="321" y="31" class="syn">,</text><rect width="164" height="36" x="353" y="5" class="s" rx="7"/><text x="363" y="31" class="k">x_coordinate</text><rect width="32" height="36" x="527" y="5" class="s" rx="7"/><text x="537" y="31" class="syn">)</text></svg>