<svg xmlns="http://www.w3.org/2000/svg" xmlns:xlink="http://www.w3.org/1999/xlink" width="648" height="46" version="1.1" viewbox="0 0 648 46"><defs><style type="text/css"/></defs><path d="M0 31h5m92 0h10m32 0h10m80 0h10m32 0h10m104 0h10m32 0h10m68 0h10m32 0h10m44 0h10m32 0h5" class="c"/><rect width="92" height="36" x="5" y="5" class="s"/><text x="15" y="31" class="k">BUCKET</text><rect width="32" height="36" x="107" y="5" class="s" rx="7"/><text x="117" y="31" class="syn">(</text><rect width="80" height="36" x="149" y="5" class="s" rx="7"/><text x="159" y="31" class="k">field</text><rect width="32" height="36" x="239" y="5" class="s" rx="7"/><text x="249" y="31" class="syn">,</text><rect width="104" height="36" x="281" y="5" class="s" rx="7"/><text x="291" y="31" class="k">buckets</text><rect width="32" height="36" x="395" y="5" class="s" rx="7"/><text x="405" y="31" class="syn">,</text><rect width="68" height="36" x="437" y="5" class="s" rx="7"/><text x="447" y="31" class="k">from</text><rect width="32" height="36" x="515" y="5" class="s" rx="7"/><text x="525" y="31" class="syn">,</text><rect width="44" height="36" x="557" y="5" class="s" rx="7"/><text x="567" y="31" class="k">to</text><rect width="32" height="36" x="611" y="5" class="s" rx="7"/><text x="621" y="31" class="syn">)</text></svg>