<svg xmlns="http://www.w3.org/2000/svg" xmlns:xlink="http://www.w3.org/1999/xlink" width="480" height="46" version="1.1" viewbox="0 0 480 46"><defs><style type="text/css"/></defs><path d="M0 31h5m68 0h10m32 0h10m128 0h10m32 0h10m128 0h10m32 0h5" class="c"/><rect width="68" height="36" x="5" y="5" class="s"/><text x="15" y="31" class="k">CASE</text><rect width="32" height="36" x="83" y="5" class="s" rx="7"/><text x="93" y="31" class="syn">(</text><rect width="128" height="36" x="125" y="5" class="s" rx="7"/><text x="135" y="31" class="k">condition</text><rect width="32" height="36" x="263" y="5" class="s" rx="7"/><text x="273" y="31" class="syn">,</text><rect width="128" height="36" x="305" y="5" class="s" rx="7"/><text x="315" y="31" class="k">trueValue</text><rect width="32" height="36" x="443" y="5" class="s" rx="7"/><text x="453" y="31" class="syn">)</text></svg>