<svg xmlns="http://www.w3.org/2000/svg" xmlns:xlink="http://www.w3.org/1999/xlink" width="456" height="46" version="1.1" viewbox="0 0 456 46"><defs><style type="text/css"/></defs><path d="M0 31h5m92 0h10m32 0h10m104 0h10m32 0h10m104 0h10m32 0h5" class="c"/><rect width="92" height="36" x="5" y="5" class="s"/><text x="15" y="31" class="k">CONCAT</text><rect width="32" height="36" x="107" y="5" class="s" rx="7"/><text x="117" y="31" class="syn">(</text><rect width="104" height="36" x="149" y="5" class="s" rx="7"/><text x="159" y="31" class="k">string1</text><rect width="32" height="36" x="263" y="5" class="s" rx="7"/><text x="273" y="31" class="syn">,</text><rect width="104" height="36" x="305" y="5" class="s" rx="7"/><text x="315" y="31" class="k">string2</text><rect width="32" height="36" x="419" y="5" class="s" rx="7"/><text x="429" y="31" class="syn">)</text></svg>