<svg xmlns="http://www.w3.org/2000/svg" xmlns:xlink="http://www.w3.org/1999/xlink" width="756" height="46" version="1.1" viewbox="0 0 756 46"><defs><style type="text/css"/></defs><path d="M0 31h5m128 0h10m32 0h10m68 0h10m32 0h10m188 0h10m32 0h10m164 0h10m32 0h5" class="c"/><rect width="128" height="36" x="5" y="5" class="s"/><text x="15" y="31" class="k">DATE_DIFF</text><rect width="32" height="36" x="143" y="5" class="s" rx="7"/><text x="153" y="31" class="syn">(</text><rect width="68" height="36" x="185" y="5" class="s" rx="7"/><text x="195" y="31" class="k">unit</text><rect width="32" height="36" x="263" y="5" class="s" rx="7"/><text x="273" y="31" class="syn">,</text><rect width="188" height="36" x="305" y="5" class="s" rx="7"/><text x="315" y="31" class="k">startTimestamp</text><rect width="32" height="36" x="503" y="5" class="s" rx="7"/><text x="513" y="31" class="syn">,</text><rect width="164" height="36" x="545" y="5" class="s" rx="7"/><text x="555" y="31" class="k">endTimestamp</text><rect width="32" height="36" x="719" y="5" class="s" rx="7"/><text x="729" y="31" class="syn">)</text></svg>