<svg xmlns="http://www.w3.org/2000/svg" xmlns:xlink="http://www.w3.org/1999/xlink" width="480" height="46" version="1.1" viewbox="0 0 480 46"><defs><style type="text/css"/></defs><path d="M0 31h5m140 0h10m32 0h10m116 0h10m32 0h10m68 0h10m32 0h5" class="c"/><rect width="140" height="36" x="5" y="5" class="s"/><text x="15" y="31" class="k">DATE_TRUNC</text><rect width="32" height="36" x="155" y="5" class="s" rx="7"/><text x="165" y="31" class="syn">(</text><rect width="116" height="36" x="197" y="5" class="s" rx="7"/><text x="207" y="31" class="k">interval</text><rect width="32" height="36" x="323" y="5" class="s" rx="7"/><text x="333" y="31" class="syn">,</text><rect width="68" height="36" x="365" y="5" class="s" rx="7"/><text x="375" y="31" class="k">date</text><rect width="32" height="36" x="443" y="5" class="s" rx="7"/><text x="453" y="31" class="syn">)</text></svg>