<svg xmlns="http://www.w3.org/2000/svg" xmlns:xlink="http://www.w3.org/1999/xlink" width="516" height="46" version="1.1" viewbox="0 0 516 46"><defs><style type="text/css"/></defs><path d="M0 31h5m152 0h10m32 0h10m140 0h10m32 0h10m68 0h10m32 0h5" class="c"/><rect width="152" height="36" x="5" y="5" class="s"/><text x="15" y="31" class="k">DATE_FORMAT</text><rect width="32" height="36" x="167" y="5" class="s" rx="7"/><text x="177" y="31" class="syn">(</text><rect width="140" height="36" x="209" y="5" class="s" rx="7"/><text x="219" y="31" class="k">dateFormat</text><rect width="32" height="36" x="359" y="5" class="s" rx="7"/><text x="369" y="31" class="syn">,</text><rect width="68" height="36" x="401" y="5" class="s" rx="7"/><text x="411" y="31" class="k">date</text><rect width="32" height="36" x="479" y="5" class="s" rx="7"/><text x="489" y="31" class="syn">)</text></svg>