<svg xmlns="http://www.w3.org/2000/svg" xmlns:xlink="http://www.w3.org/1999/xlink" width="504" height="46" version="1.1" viewbox="0 0 504 46"><defs><style type="text/css"/></defs><path d="M0 31h5m164 0h10m32 0h10m116 0h10m32 0h10m68 0h10m32 0h5" class="c"/><rect width="164" height="36" x="5" y="5" class="s"/><text x="15" y="31" class="k">DATE_EXTRACT</text><rect width="32" height="36" x="179" y="5" class="s" rx="7"/><text x="189" y="31" class="syn">(</text><rect width="116" height="36" x="221" y="5" class="s" rx="7"/><text x="231" y="31" class="k">datePart</text><rect width="32" height="36" x="347" y="5" class="s" rx="7"/><text x="357" y="31" class="syn">,</text><rect width="68" height="36" x="389" y="5" class="s" rx="7"/><text x="399" y="31" class="k">date</text><rect width="32" height="36" x="467" y="5" class="s" rx="7"/><text x="477" y="31" class="syn">)</text></svg>