<svg xmlns="http://www.w3.org/2000/svg" xmlns:xlink="http://www.w3.org/1999/xlink" width="432" height="46" version="1.1" viewbox="0 0 432 46"><defs><style type="text/css"/></defs><path d="M0 31h5m128 0h10m32 0h10m56 0h10m32 0h10m92 0h10m32 0h5" class="c"/><rect width="128" height="36" x="5" y="5" class="s"/><text x="15" y="31" class="k">ENDS_WITH</text><rect width="32" height="36" x="143" y="5" class="s" rx="7"/><text x="153" y="31" class="syn">(</text><rect width="56" height="36" x="185" y="5" class="s" rx="7"/><text x="195" y="31" class="k">str</text><rect width="32" height="36" x="251" y="5" class="s" rx="7"/><text x="261" y="31" class="syn">,</text><rect width="92" height="36" x="293" y="5" class="s" rx="7"/><text x="303" y="31" class="k">suffix</text><rect width="32" height="36" x="395" y="5" class="s" rx="7"/><text x="405" y="31" class="syn">)</text></svg>