<svg xmlns="http://www.w3.org/2000/svg" xmlns:xlink="http://www.w3.org/1999/xlink" width="420" height="46" version="1.1" viewbox="0 0 420 46"><defs><style type="text/css"/></defs><path d="M0 31h5m116 0h10m32 0h10m80 0h10m32 0h10m68 0h10m32 0h5" class="c"/><rect width="116" height="36" x="5" y="5" class="s"/><text x="15" y="31" class="k">GREATEST</text><rect width="32" height="36" x="131" y="5" class="s" rx="7"/><text x="141" y="31" class="syn">(</text><rect width="80" height="36" x="173" y="5" class="s" rx="7"/><text x="183" y="31" class="k">first</text><rect width="32" height="36" x="263" y="5" class="s" rx="7"/><text x="273" y="31" class="syn">,</text><rect width="68" height="36" x="305" y="5" class="s" rx="7"/><text x="315" y="31" class="k">rest</text><rect width="32" height="36" x="383" y="5" class="s" rx="7"/><text x="393" y="31" class="syn">)</text></svg>