<svg xmlns="http://www.w3.org/2000/svg" xmlns:xlink="http://www.w3.org/1999/xlink" width="384" height="46" version="1.1" viewbox="0 0 384 46"><defs><style type="text/css"/></defs><path d="M0 31h5m80 0h10m32 0h10m80 0h10m32 0h10m68 0h10m32 0h5" class="c"/><rect width="80" height="36" x="5" y="5" class="s"/><text x="15" y="31" class="k">LEAST</text><rect width="32" height="36" x="95" y="5" class="s" rx="7"/><text x="105" y="31" class="syn">(</text><rect width="80" height="36" x="137" y="5" class="s" rx="7"/><text x="147" y="31" class="k">first</text><rect width="32" height="36" x="227" y="5" class="s" rx="7"/><text x="237" y="31" class="syn">,</text><rect width="68" height="36" x="269" y="5" class="s" rx="7"/><text x="279" y="31" class="k">rest</text><rect width="32" height="36" x="347" y="5" class="s" rx="7"/><text x="357" y="31" class="syn">)</text></svg>