<svg xmlns="http://www.w3.org/2000/svg" xmlns:xlink="http://www.w3.org/1999/xlink" width="600" height="46" version="1.1" viewbox="0 0 600 46"><defs><style type="text/css"/></defs><path d="M0 31h5m92 0h10m32 0h10m92 0h10m32 0h10m128 0h10m32 0h10m80 0h10m32 0h5" class="c"/><rect width="92" height="36" x="5" y="5" class="s"/><text x="15" y="31" class="k">LOCATE</text><rect width="32" height="36" x="107" y="5" class="s" rx="7"/><text x="117" y="31" class="syn">(</text><rect width="92" height="36" x="149" y="5" class="s" rx="7"/><text x="159" y="31" class="k">string</text><rect width="32" height="36" x="251" y="5" class="s" rx="7"/><text x="261" y="31" class="syn">,</text><rect width="128" height="36" x="293" y="5" class="s" rx="7"/><text x="303" y="31" class="k">substring</text><rect width="32" height="36" x="431" y="5" class="s" rx="7"/><text x="441" y="31" class="syn">,</text><rect width="80" height="36" x="473" y="5" class="s" rx="7"/><text x="483" y="31" class="k">start</text><rect width="32" height="36" x="563" y="5" class="s" rx="7"/><text x="573" y="31" class="syn">)</text></svg>