<svg xmlns="http://www.w3.org/2000/svg" xmlns:xlink="http://www.w3.org/1999/xlink" width="372" height="46" version="1.1" viewbox="0 0 372 46"><defs><style type="text/css"/></defs><path d="M0 31h5m56 0h10m32 0h10m68 0h10m32 0h10m92 0h10m32 0h5" class="c"/><rect width="56" height="36" x="5" y="5" class="s"/><text x="15" y="31" class="k">LOG</text><rect width="32" height="36" x="71" y="5" class="s" rx="7"/><text x="81" y="31" class="syn">(</text><rect width="68" height="36" x="113" y="5" class="s" rx="7"/><text x="123" y="31" class="k">base</text><rect width="32" height="36" x="191" y="5" class="s" rx="7"/><text x="201" y="31" class="syn">,</text><rect width="92" height="36" x="233" y="5" class="s" rx="7"/><text x="243" y="31" class="k">number</text><rect width="32" height="36" x="335" y="5" class="s" rx="7"/><text x="345" y="31" class="syn">)</text></svg>