<svg xmlns="http://www.w3.org/2000/svg" xmlns:xlink="http://www.w3.org/1999/xlink" width="420" height="46" version="1.1" viewbox="0 0 420 46"><defs><style type="text/css"/></defs><path d="M0 31h5m104 0h10m32 0h10m80 0h10m32 0h10m80 0h10m32 0h5" class="c"/><rect width="104" height="36" x="5" y="5" class="s"/><text x="15" y="31" class="k">MV_SORT</text><rect width="32" height="36" x="119" y="5" class="s" rx="7"/><text x="129" y="31" class="syn">(</text><rect width="80" height="36" x="161" y="5" class="s" rx="7"/><text x="171" y="31" class="k">field</text><rect width="32" height="36" x="251" y="5" class="s" rx="7"/><text x="261" y="31" class="syn">,</text><rect width="80" height="36" x="293" y="5" class="s" rx="7"/><text x="303" y="31" class="k">order</text><rect width="32" height="36" x="383" y="5" class="s" rx="7"/><text x="393" y="31" class="syn">)</text></svg>