<svg xmlns="http://www.w3.org/2000/svg" xmlns:xlink="http://www.w3.org/1999/xlink" width="612" height="46" version="1.1" viewbox="0 0 612 46"><defs><style type="text/css"/></defs><path d="M0 31h5m104 0h10m32 0h10m92 0h10m32 0h10m80 0h10m32 0h10m128 0h10m32 0h5" class="c"/><rect width="104" height="36" x="5" y="5" class="s"/><text x="15" y="31" class="k">REPLACE</text><rect width="32" height="36" x="119" y="5" class="s" rx="7"/><text x="129" y="31" class="syn">(</text><rect width="92" height="36" x="161" y="5" class="s" rx="7"/><text x="171" y="31" class="k">string</text><rect width="32" height="36" x="263" y="5" class="s" rx="7"/><text x="273" y="31" class="syn">,</text><rect width="80" height="36" x="305" y="5" class="s" rx="7"/><text x="315" y="31" class="k">regex</text><rect width="32" height="36" x="395" y="5" class="s" rx="7"/><text x="405" y="31" class="syn">,</text><rect width="128" height="36" x="437" y="5" class="s" rx="7"/><text x="447" y="31" class="k">newString</text><rect width="32" height="36" x="575" y="5" class="s" rx="7"/><text x="585" y="31" class="syn">)</text></svg>