<svg xmlns="http://www.w3.org/2000/svg" xmlns:xlink="http://www.w3.org/1999/xlink" width="468" height="46" version="1.1" viewbox="0 0 468 46"><defs><style type="text/css"/></defs><path d="M0 31h5m152 0h10m32 0h10m80 0h10m32 0h10m80 0h10m32 0h5" class="c"/><rect width="152" height="36" x="5" y="5" class="s"/><text x="15" y="31" class="k">ST_DISJOINT</text><rect width="32" height="36" x="167" y="5" class="s" rx="7"/><text x="177" y="31" class="syn">(</text><rect width="80" height="36" x="209" y="5" class="s" rx="7"/><text x="219" y="31" class="k">geomA</text><rect width="32" height="36" x="299" y="5" class="s" rx="7"/><text x="309" y="31" class="syn">,</text><rect width="80" height="36" x="341" y="5" class="s" rx="7"/><text x="351" y="31" class="k">geomB</text><rect width="32" height="36" x="431" y="5" class="s" rx="7"/><text x="441" y="31" class="syn">)</text></svg>