<svg xmlns="http://www.w3.org/2000/svg" xmlns:xlink="http://www.w3.org/1999/xlink" width="492" height="46" version="1.1" viewbox="0 0 492 46"><defs><style type="text/css"/></defs><path d="M0 31h5m176 0h10m32 0h10m80 0h10m32 0h10m80 0h10m32 0h5" class="c"/><rect width="176" height="36" x="5" y="5" class="s"/><text x="15" y="31" class="k">ST_INTERSECTS</text><rect width="32" height="36" x="191" y="5" class="s" rx="7"/><text x="201" y="31" class="syn">(</text><rect width="80" height="36" x="233" y="5" class="s" rx="7"/><text x="243" y="31" class="k">geomA</text><rect width="32" height="36" x="323" y="5" class="s" rx="7"/><text x="333" y="31" class="syn">,</text><rect width="80" height="36" x="365" y="5" class="s" rx="7"/><text x="375" y="31" class="k">geomB</text><rect width="32" height="36" x="455" y="5" class="s" rx="7"/><text x="465" y="31" class="syn">)</text></svg>