<svg xmlns="http://www.w3.org/2000/svg" xmlns:xlink="http://www.w3.org/1999/xlink" width="456" height="46" version="1.1" viewbox="0 0 456 46"><defs><style type="text/css"/></defs><path d="M0 31h5m152 0h10m32 0h10m56 0h10m32 0h10m92 0h10m32 0h5" class="c"/><rect width="152" height="36" x="5" y="5" class="s"/><text x="15" y="31" class="k">STARTS_WITH</text><rect width="32" height="36" x="167" y="5" class="s" rx="7"/><text x="177" y="31" class="syn">(</text><rect width="56" height="36" x="209" y="5" class="s" rx="7"/><text x="219" y="31" class="k">str</text><rect width="32" height="36" x="275" y="5" class="s" rx="7"/><text x="285" y="31" class="syn">,</text><rect width="92" height="36" x="317" y="5" class="s" rx="7"/><text x="327" y="31" class="k">prefix</text><rect width="32" height="36" x="419" y="5" class="s" rx="7"/><text x="429" y="31" class="syn">)</text></svg>