<svg xmlns="http://www.w3.org/2000/svg" xmlns:xlink="http://www.w3.org/1999/xlink" width="600" height="46" version="1.1" viewbox="0 0 600 46"><defs><style type="text/css"/></defs><path d="M0 31h5m128 0h10m32 0h10m92 0h10m32 0h10m80 0h10m32 0h10m92 0h10m32 0h5" class="c"/><rect width="128" height="36" x="5" y="5" class="s"/><text x="15" y="31" class="k">SUBSTRING</text><rect width="32" height="36" x="143" y="5" class="s" rx="7"/><text x="153" y="31" class="syn">(</text><rect width="92" height="36" x="185" y="5" class="s" rx="7"/><text x="195" y="31" class="k">string</text><rect width="32" height="36" x="287" y="5" class="s" rx="7"/><text x="297" y="31" class="syn">,</text><rect width="80" height="36" x="329" y="5" class="s" rx="7"/><text x="339" y="31" class="k">start</text><rect width="32" height="36" x="419" y="5" class="s" rx="7"/><text x="429" y="31" class="syn">,</text><rect width="92" height="36" x="461" y="5" class="s" rx="7"/><text x="471" y="31" class="k">length</text><rect width="32" height="36" x="563" y="5" class="s" rx="7"/><text x="573" y="31" class="syn">)</text></svg>